<?xml version="1.0" standalone="no"?>
<!DOCTYPE svg PUBLIC "-//W3C//DTD SVG 20010904//EN"
 "http://www.w3.org/TR/2001/REC-SVG-20010904/DTD/svg10.dtd">
<svg version="1.0" xmlns="http://www.w3.org/2000/svg"
 width="512.000000pt" height="512.000000pt" viewBox="0 0 512.000000 512.000000"
 preserveAspectRatio="xMidYMid meet">
<metadata>
Created by potrace 1.11, written by Peter Selinger 2001-2013
</metadata>
<g transform="translate(0.000000,512.000000) scale(0.100000,-0.100000)"
fill="#000000" stroke="none">
<path d="M1657 4244 c-4 -4 -16 -9 -27 -11 -10 -1 -34 -11 -53 -22 -20 -11
-38 -17 -43 -13 -4 4 -4 2 -1 -4 4 -6 -5 -21 -18 -34 -13 -13 -22 -27 -19 -31
3 -5 0 -9 -6 -9 -6 0 -8 -4 -5 -10 3 -5 1 -10 -5 -10 -6 0 -8 -4 -5 -10 3 -5
2 -10 -4 -10 -5 0 -8 -9 -6 -20 2 -11 1 -20 -3 -20 -9 0 -9 -81 0 -95 4 -6 3
-17 -2 -25 -5 -8 -5 -19 -1 -25 5 -5 14 -27 20 -47 7 -21 17 -38 23 -38 6 0 8
-6 5 -14 -3 -7 0 -19 6 -25 6 -6 7 -11 2 -11 -6 0 -3 -4 5 -10 9 -6 14 -24 13
-56 -3 -80 -44 -141 -104 -150 -16 -2 -43 -6 -61 -9 -17 -2 -36 -9 -42 -15 -5
-5 -19 -10 -31 -10 -26 0 -88 -22 -107 -38 -8 -6 -18 -9 -21 -5 -4 3 -7 1 -7
-6 0 -7 -4 -10 -8 -7 -5 3 -18 -3 -29 -14 -12 -10 -23 -16 -26 -14 -3 3 -8 -4
-12 -15 -3 -12 -11 -21 -16 -21 -5 0 -9 -9 -9 -21 0 -13 -4 -18 -12 -13 -7 4
-10 4 -6 0 3 -4 1 -28 -7 -52 -7 -24 -11 -44 -8 -44 3 0 0 -7 -7 -15 -9 -11
-9 -15 -1 -15 7 0 9 -5 6 -10 -10 -16 -15 -70 -7 -70 4 0 8 -9 8 -20 0 -11 -4
-20 -8 -20 -4 0 -3 -12 3 -27 5 -14 8 -32 5 -40 -3 -7 -1 -13 5 -13 6 0 8 -4
4 -9 -3 -5 0 -13 6 -17 8 -4 7 -9 -2 -15 -8 -5 -9 -9 -3 -9 7 0 9 -11 6 -25
-2 -14 -9 -25 -14 -25 -5 0 -6 -4 -3 -10 3 -5 -3 -10 -14 -10 -12 0 -20 -5
-18 -12 1 -7 -11 -12 -33 -13 -19 0 -40 -4 -47 -8 -6 -4 -14 -4 -17 1 -2 4
-26 7 -53 6 -63 -2 -65 -2 -58 -14 11 -18 -32 -25 -162 -25 -77 1 -131 -3
-135 -10 -5 -7 -11 -7 -15 0 -9 11 -38 13 -48 3 -4 -4 -18 -3 -31 2 -16 7 -24
6 -24 -1 0 -8 -4 -8 -14 0 -11 9 -15 9 -19 -1 -4 -11 -6 -11 -6 0 -1 10 -6 10
-21 2 -15 -8 -20 -8 -20 1 0 8 -4 9 -13 0 -10 -8 -17 -7 -25 1 -7 7 -12 9 -12
5 0 -4 -18 3 -40 14 -23 12 -47 18 -60 14 -13 -4 -20 -2 -20 7 0 10 -2 10 -8
1 -4 -7 -18 -11 -30 -8 -13 2 -20 0 -17 -6 4 -5 2 -9 -3 -9 -20 0 -55 -42 -58
-70 -2 -17 0 -29 4 -26 4 2 7 -15 7 -39 -1 -24 2 -42 7 -39 4 3 8 -2 8 -11 0
-9 7 -24 16 -33 14 -13 47 -16 228 -16 116 -1 216 -5 223 -9 7 -4 12 -23 11
-41 -1 -31 -4 -33 -32 -33 -18 1 -37 -2 -44 -7 -7 -4 -12 -4 -12 1 0 9 -137
10 -145 1 -4 -3 -21 -2 -40 2 -21 5 -38 3 -44 -3 -6 -6 -11 -7 -11 -1 0 5 -23
9 -51 8 -39 0 -54 -5 -63 -20 -12 -20 -16 -74 -6 -74 3 0 6 -12 6 -27 1 -63 5
-71 38 -91 19 -11 37 -17 41 -14 10 11 85 10 85 -1 0 -6 5 -5 13 2 10 8 17 7
25 -1 7 -7 12 -8 12 -2 0 5 14 10 30 9 17 0 30 -4 30 -9 0 -5 6 -4 13 1 6 5
32 8 57 6 64 -5 63 -5 87 1 13 2 23 1 23 -5 0 -5 5 -8 11 -7 8 2 13 -14 14
-43 l2 -46 -206 2 c-225 2 -255 -4 -245 -47 5 -20 13 -76 16 -115 1 -7 5 -10
10 -7 4 3 8 -2 8 -10 0 -16 34 -31 50 -21 5 3 10 2 10 -4 0 -6 6 -8 13 -5 7 2
22 -5 33 -17 11 -14 13 -19 4 -14 -13 8 -13 6 -2 -8 8 -9 11 -20 8 -25 -15
-25 -13 -62 6 -78 17 -16 40 -19 184 -19 90 -1 166 -3 168 -6 3 -2 7 -16 9
-29 2 -14 7 -33 11 -42 4 -9 9 -25 11 -35 1 -10 8 -17 15 -15 6 1 9 -2 5 -7
-3 -6 4 -20 15 -31 16 -16 18 -24 10 -40 -7 -13 -7 -20 -1 -20 7 0 7 -9 1 -25
-7 -17 -6 -25 1 -25 8 0 8 -4 0 -14 -8 -10 -9 -16 -1 -21 6 -3 7 -12 3 -18
-12 -20 -12 -37 0 -37 8 0 8 -3 2 -8 -14 -10 -17 -32 -4 -32 6 0 7 -6 2 -12
-11 -18 -12 -98 -1 -104 5 -3 5 -11 0 -17 -5 -7 -10 -64 -10 -127 -1 -199 -1
-211 -12 -205 -14 9 11 -46 34 -72 10 -12 23 -20 28 -17 4 3 8 1 8 -5 0 -5 11
-6 28 -2 15 4 26 12 26 17 -1 5 7 15 18 22 10 7 16 18 13 23 -4 5 -3 14 1 20
12 19 13 119 2 119 -7 0 -7 4 -1 12 6 7 8 25 6 41 -2 16 1 27 8 27 7 0 8 5 3
12 -5 7 -9 29 -9 48 1 19 -4 38 -9 42 -7 5 -6 8 2 8 7 0 10 5 7 10 -3 6 -3 10
2 10 4 0 7 21 7 47 -1 27 4 54 10 62 8 11 8 13 -1 7 -16 -9 -17 6 -1 22 7 7 8
12 2 12 -13 0 -12 39 0 58 5 8 4 18 -2 24 -7 7 -8 17 -2 29 7 11 7 20 0 24 -7
4 -6 13 1 27 8 16 8 19 -1 13 -9 -6 -9 -2 -1 14 7 11 8 21 3 21 -5 0 -8 8 -7
18 4 30 24 72 35 72 6 0 9 4 6 8 -3 5 3 18 14 29 10 12 17 23 14 25 -2 3 8 15
23 29 14 13 23 18 18 10 -6 -11 -5 -12 6 -5 8 5 100 9 205 10 l190 0 3 -35 c5
-64 7 -76 14 -87 3 -6 8 -41 9 -78 2 -36 7 -66 12 -66 4 0 6 -9 3 -20 -3 -11
-2 -20 2 -20 4 0 7 -10 6 -23 -1 -12 3 -25 9 -29 7 -5 6 -8 -4 -8 -13 0 -13
-2 -1 -9 12 -8 11 -15 -7 -43 -12 -18 -22 -30 -22 -26 0 20 -55 -48 -58 -72
-2 -23 2 -30 28 -41 17 -8 30 -21 30 -32 0 -11 4 -15 12 -11 8 5 9 2 5 -9 -4
-11 -1 -17 8 -17 8 0 15 -6 15 -14 0 -9 7 -13 20 -11 11 2 20 0 20 -5 0 -4 10
-6 22 -2 16 4 19 2 13 -9 -8 -12 -6 -12 8 0 9 7 24 11 32 7 13 -5 17 0 14 21
0 3 6 10 14 15 12 6 14 15 7 38 -5 17 -5 28 0 25 15 -9 9 139 -6 160 -8 10
-14 15 -14 9 0 -5 -6 -2 -13 6 -7 8 -25 20 -41 25 -30 10 -36 24 -37 83 -1 17
-5 34 -10 37 -4 3 -4 16 0 28 5 12 5 29 1 37 -21 43 -27 79 -16 91 8 9 8 10
-1 5 -8 -4 -11 7 -10 38 l1 45 73 -3 c47 -2 73 1 73 8 0 6 4 5 9 -2 9 -15 20
-15 38 -1 6 6 14 6 16 2 7 -11 88 -10 104 0 6 4 14 4 16 0 6 -10 145 -8 170 2
9 4 17 3 17 -2 0 -5 7 -10 15 -10 8 0 15 3 15 7 0 4 18 4 39 0 25 -4 44 -3 51
4 8 8 13 7 19 -2 5 -8 12 -13 17 -13 5 1 9 -2 9 -6 0 -5 3 -13 7 -19 4 -6 4
-14 1 -18 -10 -10 -12 -36 -3 -36 4 0 7 -17 7 -37 1 -93 3 -104 16 -97 8 5 8
2 -2 -9 -10 -13 -10 -17 -1 -17 10 0 10 -3 0 -15 -9 -10 -9 -15 -1 -15 7 0 9
-13 6 -35 -3 -23 0 -35 8 -35 7 0 6 -4 -3 -10 -13 -9 -13 -10 0 -10 12 -1 11
-3 -3 -11 -9 -6 -15 -15 -11 -20 3 -5 0 -8 -7 -7 -7 2 -14 -3 -15 -9 -1 -7 -2
-14 -3 -15 -2 -3 -11 -73 -12 -93 -2 -30 10 -80 20 -83 6 -2 9 -8 6 -12 -10
-17 49 -38 95 -34 33 2 51 10 68 29 12 14 22 23 22 18 0 -4 8 4 17 17 31 44
47 60 61 60 7 0 11 4 7 9 -3 5 -1 13 5 16 6 4 10 22 8 40 -1 19 -6 31 -10 29
-4 -3 -8 0 -8 6 0 30 -61 60 -116 58 -40 -2 -82 21 -67 36 4 3 2 6 -3 6 -10 0
-16 44 -18 137 -1 29 -4 53 -7 53 -3 0 -5 25 -4 55 1 30 -2 52 -6 50 -4 -3 -5
4 -2 16 4 14 12 19 24 16 11 -3 17 -1 13 4 -3 5 4 9 15 9 11 0 23 -5 26 -10 4
-7 11 -7 18 -2 16 13 50 11 59 -2 6 -8 8 -8 8 0 0 13 178 14 197 1 6 -4 15 -2
19 4 5 8 3 9 -6 4 -9 -5 -11 -4 -6 4 4 6 12 8 19 4 6 -3 61 -5 121 -4 61 2
165 4 231 5 66 1 126 5 134 10 9 6 12 5 8 -1 -4 -6 11 -10 38 -9 25 1 45 5 45
10 0 5 7 3 15 -4 12 -10 15 -10 15 1 0 11 2 11 9 0 8 -12 12 -12 24 -2 11 9
17 9 22 0 6 -8 10 -7 16 2 7 12 9 12 9 0 0 -11 3 -11 15 -1 12 10 15 10 15 0
0 -10 3 -10 14 -1 8 7 17 8 19 4 7 -11 48 -10 66 1 8 5 17 3 22 -5 7 -12 9
-12 9 0 0 10 3 11 14 2 10 -9 16 -9 21 -1 5 8 11 8 19 1 7 -6 16 -8 20 -4 3 4
16 8 27 10 14 2 18 -1 13 -9 -6 -10 -4 -10 7 -2 8 7 60 11 132 10 64 -1 117 1
117 4 0 3 27 3 60 0 33 -3 60 -3 60 0 0 4 30 5 67 4 45 -3 70 0 75 9 6 9 8 9
8 0 0 -8 11 -11 33 -9 17 2 40 -1 51 -6 13 -7 16 -7 12 1 -4 6 7 9 31 8 21 -2
46 1 57 6 14 7 16 6 11 -4 -6 -9 -2 -11 14 -6 14 3 24 0 28 -9 3 -8 10 -14 17
-14 6 0 20 -15 31 -33 27 -45 29 -51 15 -42 -9 5 -11 4 -6 -3 11 -19 19 -54
20 -99 0 -22 3 -40 6 -38 3 2 6 -29 7 -67 1 -39 6 -75 12 -81 6 -6 7 -17 2
-26 -7 -15 -7 -37 -1 -43 2 -2 4 -23 5 -48 6 -102 10 -140 15 -140 3 0 6 -21
7 -48 2 -48 9 -105 13 -109 3 -4 7 -20 9 -35 0 -6 4 -9 7 -6 3 4 15 -3 26 -14
14 -14 22 -17 28 -9 4 7 11 11 16 10 22 -4 35 2 28 13 -5 7 -2 9 9 5 11 -4 14
-2 10 9 -3 7 -1 14 4 14 9 0 8 61 -2 150 -3 25 -7 63 -8 85 -2 22 -6 45 -9 50
-4 6 -3 17 2 25 5 9 5 19 -2 27 -6 8 -6 13 -1 13 5 0 9 10 7 23 -1 12 -3 22
-4 22 -4 0 -10 44 -12 82 -1 23 -5 40 -8 38 -3 -2 -5 19 -4 46 1 27 -3 49 -9
49 -6 0 -6 4 0 13 6 6 9 20 7 30 -1 11 0 16 3 13 8 -7 53 54 53 71 0 7 4 13 9
13 5 0 7 8 5 18 -7 26 17 52 54 56 17 2 32 0 32 -5 0 -5 12 -4 27 2 19 7 29 7
31 0 2 -6 12 -7 26 -1 12 4 29 4 37 0 25 -14 77 23 77 54 0 14 -4 26 -9 26 -5
0 -9 8 -9 18 0 10 -3 22 -7 26 -14 13 -11 34 6 39 9 2 34 4 54 3 20 -1 37 4
37 9 0 6 5 3 10 -5 7 -11 10 -11 10 -2 0 7 5 10 10 7 6 -3 10 0 10 7 0 9 3 9
10 -2 5 -8 10 -12 11 -7 4 19 5 23 17 44 10 19 10 23 0 23 -8 0 -9 3 -3 8 6 4
12 16 12 27 1 11 4 32 7 48 3 16 0 27 -6 27 -6 0 -8 3 -5 7 4 3 -6 12 -20 20
-19 10 -29 11 -31 3 -3 -7 -9 -7 -20 2 -9 7 -13 8 -9 2 4 -7 -5 -11 -23 -11
-17 0 -27 5 -23 10 4 6 1 7 -8 1 -19 -12 -88 -14 -95 -2 -4 5 -10 5 -17 0 -7
-5 -25 -9 -42 -8 -16 1 -36 -3 -42 -8 -8 -5 -13 -4 -13 3 0 13 -22 10 -32 -4
-7 -9 -13 18 -8 40 1 5 2 17 3 25 1 18 67 23 67 6 0 -5 6 -2 13 9 10 13 16 15
21 6 4 -6 11 -9 15 -7 4 3 68 6 141 7 161 2 166 5 173 94 2 17 6 35 9 40 12
20 5 62 -11 72 -9 6 -28 10 -41 9 -14 -1 -33 2 -44 7 -12 6 -16 6 -12 -1 4 -7
-9 -9 -36 -7 -25 2 -46 -1 -50 -8 -6 -9 -8 -9 -8 0 0 7 -10 10 -26 7 -18 -3
-23 -1 -18 7 5 9 3 9 -7 3 -8 -5 -23 -9 -34 -9 -11 0 -26 -4 -32 -8 -7 -5 -13
-4 -13 1 0 5 -18 8 -40 7 l-41 -2 4 39 c4 36 37 90 37 60 0 -10 5 -10 20 -2
14 8 20 8 20 0 0 -8 6 -8 20 0 11 6 20 7 20 2 0 -10 42 -8 59 3 6 3 11 1 11
-6 0 -9 3 -9 14 0 10 8 16 9 21 1 4 -7 12 -7 26 0 13 8 19 7 19 0 0 -6 5 -8
12 -4 17 11 58 11 58 1 0 -4 9 -3 19 3 14 7 21 6 24 -3 4 -9 6 -9 6 1 1 7 5
11 10 8 4 -3 19 3 31 14 13 11 20 20 15 20 -4 0 -3 6 2 13 6 6 9 20 8 30 -2 9
2 17 8 17 7 0 5 5 -3 10 -8 5 -10 10 -5 10 10 0 11 19 6 68 0 7 -5 10 -11 7
-5 -3 -10 -1 -10 4 0 6 -8 11 -18 11 -10 0 -22 4 -27 9 -6 5 -28 12 -50 14
-22 3 -52 10 -67 16 -16 6 -28 7 -28 3 0 -4 -5 0 -10 8 -6 10 -10 11 -10 2 0
-14 -21 -12 -32 3 -5 7 -11 7 -15 0 -11 -14 -63 -15 -63 -1 0 6 -4 5 -9 -2 -4
-8 -12 -14 -16 -14 -4 0 -12 6 -16 14 -5 7 -9 8 -9 2 0 -6 -7 -11 -15 -11 -8
0 -15 5 -15 11 0 6 -4 5 -9 -2 -11 -17 -21 -17 -32 0 -5 7 -9 8 -9 2 0 -14
-30 -14 -30 0 0 6 -4 5 -9 -2 -4 -8 -12 -14 -16 -14 -4 0 -12 6 -16 14 -5 7
-9 8 -9 2 0 -6 -7 -11 -15 -11 -8 0 -15 5 -15 11 0 6 -4 5 -9 -2 -11 -17 -21
-17 -32 0 -5 7 -9 8 -9 2 0 -6 -7 -11 -15 -11 -8 0 -15 5 -15 10 0 5 -6 5 -13
-2 -10 -7 -17 -7 -24 0 -7 7 -17 8 -25 3 -20 -13 -58 -12 -58 0 0 6 -4 5 -9
-2 -11 -17 -21 -17 -32 0 -6 8 -12 9 -16 3 -10 -13 -63 -15 -63 -2 0 5 -5 5
-13 -2 -10 -8 -17 -7 -27 2 -7 6 -10 7 -7 1 4 -7 -5 -11 -23 -11 -18 0 -27 4
-23 11 4 6 0 5 -8 -1 -12 -10 -18 -10 -27 -1 -7 7 -12 8 -12 2 0 -12 -38 -16
-45 -4 -3 6 -16 5 -31 0 -14 -6 -23 -6 -20 -1 3 5 -7 11 -22 13 -40 7 -56 12
-62 20 -3 3 -12 8 -20 10 -8 2 -19 6 -25 11 -18 14 -104 54 -100 47 2 -4 -9
-7 -25 -6 -17 1 -30 3 -30 6 0 3 -19 6 -43 7 -38 2 -82 9 -82 13 0 2 -64 9
-112 12 -24 2 -43 7 -43 11 0 4 -9 3 -19 -3 -14 -7 -21 -6 -24 3 -3 9 -7 9
-20 -2 -13 -10 -17 -10 -17 -1 0 8 -7 10 -17 5 -27 -11 -63 -13 -63 -5 0 9
-20 8 -35 -2 -6 -4 -17 -3 -25 2 -9 5 -19 5 -27 -2 -7 -6 -13 -7 -13 -2 0 5
-15 10 -32 10 -57 2 -93 7 -103 15 -5 4 -36 10 -68 13 -44 5 -57 3 -51 -5 5
-8 3 -9 -7 -3 -23 14 -62 17 -53 3 5 -8 3 -9 -7 -3 -8 4 -36 7 -62 6 -27 -1
-58 3 -69 9 -15 8 -19 8 -14 0 4 -6 -20 4 -54 22 -97 51 -100 53 -93 61 4 4 0
4 -8 1 -9 -3 -22 1 -29 10 -7 8 -18 15 -26 15 -7 0 -16 9 -19 20 -4 11 -11 18
-16 15 -5 -4 -9 -1 -9 4 0 12 -64 81 -75 81 -3 0 -21 16 -39 35 -18 19 -36 32
-40 28 -3 -3 -6 0 -6 7 0 7 -3 10 -7 7 -3 -4 -16 5 -29 18 -13 14 -26 25 -29
25 -3 0 -17 11 -31 25 -14 14 -30 23 -35 20 -5 -4 -9 -1 -9 5 0 6 -4 9 -9 6
-5 -4 -11 -1 -13 4 -2 6 -16 13 -32 16 -16 3 -33 7 -37 10 -4 2 -11 0 -14 -6
-5 -8 -11 -7 -21 1 -11 9 -14 9 -14 -1 0 -9 -3 -10 -13 -1 -8 6 -18 7 -22 3
-5 -4 -5 -1 -1 6 4 6 3 12 -3 12 -14 0 -19 31 -9 58 5 14 4 22 -3 22 -8 0 -8
5 1 15 6 8 9 19 6 24 -4 5 -2 12 3 16 5 3 8 14 6 25 -2 11 1 22 6 25 5 4 7 11
4 16 -4 5 0 12 9 15 12 5 13 11 3 42 -11 34 -13 59 -7 72 7 14 7 90 0 90 -5 0
-6 9 -3 20 3 11 1 20 -5 20 -13 0 -10 42 5 58 20 21 3 47 -69 108 -7 5 -15 11
-18 11 -3 1 -18 6 -33 12 -16 6 -33 11 -38 11 -6 0 -8 4 -5 8 3 4 -8 7 -25 6
-16 -1 -29 2 -29 6 0 4 -10 6 -22 2 -16 -4 -19 -2 -13 9 8 12 6 12 -8 0 -14
-11 -17 -11 -17 0 0 12 -2 12 -9 0 -6 -9 -10 -10 -12 -2 -3 7 -8 9 -12 5z
m517 -1278 c25 -24 47 -42 49 -39 3 2 7 -3 10 -11 7 -17 -33 -33 -52 -21 -6 3
-11 1 -11 -5 0 -8 -6 -8 -20 0 -15 8 -20 8 -20 -1 0 -8 -5 -7 -17 2 -15 12
-16 12 -8 -1 7 -12 6 -13 -7 -3 -8 7 -17 10 -20 7 -3 -3 -9 -1 -13 5 -3 6 -1
11 5 11 6 0 9 4 6 9 -11 18 26 90 46 91 5 0 28 -20 52 -44z m2303 -311 c-4 -8
-3 -17 2 -19 13 -8 6 -46 -13 -67 -14 -16 -20 -18 -32 -9 -8 7 -14 8 -14 3 0
-9 -22 -10 -55 -3 -5 1 -13 1 -17 0 -23 -7 -74 -4 -80 5 -5 6 -8 7 -8 0 0 -12
-60 -13 -77 -2 -7 5 -13 4 -13 -2 0 -5 -11 -8 -25 -6 -14 1 -25 -3 -25 -9 0
-6 -4 -5 -9 3 -5 7 -14 10 -20 7 -6 -4 -11 -1 -11 6 0 8 -3 9 -8 3 -10 -15
-155 -15 -164 -1 -6 8 -8 8 -8 -1 0 -6 -13 -10 -30 -9 -16 1 -30 -3 -30 -8 0
-7 -3 -8 -8 -1 -8 11 -102 14 -102 3 0 -4 -13 -3 -30 2 -16 5 -30 5 -30 1 0
-9 -43 -6 -59 4 -6 3 -11 1 -11 -6 0 -8 -4 -8 -15 1 -12 10 -15 10 -16 -1 0
-12 -1 -12 -6 0 -4 11 -7 11 -13 0 -7 -10 -11 -10 -24 0 -13 11 -16 11 -17 0
0 -12 -1 -12 -6 0 -5 11 -7 11 -15 0 -8 -11 -11 -11 -15 -1 -4 10 -8 10 -19 1
-11 -9 -14 -8 -14 2 0 11 -2 11 -9 0 -8 -12 -12 -12 -25 -2 -13 11 -16 11 -17
0 0 -12 -1 -12 -6 0 -5 11 -7 11 -14 0 -8 -12 -10 -12 -18 0 -6 9 -11 10 -15
2 -4 -7 -15 -7 -31 -1 -13 5 -26 6 -29 2 -2 -4 -135 -7 -295 -7 -160 0 -291
-4 -291 -9 0 -5 -8 -2 -17 5 -14 12 -16 12 -8 0 6 -10 4 -12 -6 -5 -18 11 -89
13 -83 2 3 -4 -5 -4 -18 0 -13 4 -120 7 -238 6 -208 -1 -263 5 -228 28 10 6
10 10 -2 18 -8 5 -11 10 -6 10 6 0 1 7 -10 15 -19 14 -19 14 1 15 11 1 35 3
52 4 18 2 30 0 27 -5 -3 -5 7 -4 21 1 15 6 29 10 31 10 3 0 2 -4 -1 -10 -4 -6
2 -7 18 -1 16 6 28 6 36 -2 6 -6 11 -7 11 -2 0 6 55 10 129 10 79 1 127 -3
124 -9 -4 -5 -1 -6 8 -1 7 5 37 10 65 10 28 1 56 5 62 9 6 3 13 2 16 -2 6 -10
36 -9 54 2 6 4 12 4 12 -1 0 -10 91 -10 108 1 7 4 12 2 12 -4 0 -7 6 -8 18 -1
11 6 24 6 32 1 8 -5 19 -6 25 -2 9 7 31 8 45 2 15 -5 80 -4 80 2 0 4 11 3 25
-2 15 -6 26 -6 30 0 4 7 13 7 24 0 10 -5 21 -7 24 -4 10 10 42 12 58 3 9 -5
19 -5 23 -2 10 11 56 9 56 -2 0 -6 3 -6 8 1 8 12 91 13 109 1 6 -4 14 -3 18 3
7 11 33 9 54 -4 10 -6 12 -5 7 2 -4 7 -3 12 3 12 5 0 13 -5 16 -10 5 -8 11 -7
20 0 8 7 24 9 36 5 14 -5 19 -3 15 3 -4 7 3 8 24 2 21 -6 30 -5 30 3 0 8 3 8
8 2 7 -10 102 -15 102 -5 0 7 96 4 109 -4 6 -4 11 -4 11 1 0 4 27 8 60 8 33 0
60 -4 60 -8 0 -4 8 -4 18 0 9 5 117 8 239 8 123 0 223 3 223 8 0 4 3 7 6 7 3
0 4 -7 1 -15z m-3489 -29 c82 0 154 4 162 9 9 6 11 4 5 -5 -5 -9 -2 -10 14 -5
11 3 21 3 22 -2 0 -4 2 -15 4 -24 1 -9 -2 -16 -9 -17 -39 -3 -83 -16 -103 -29
-13 -8 -23 -13 -23 -9 0 3 -11 1 -25 -4 -14 -5 -25 -6 -25 -2 0 9 -53 7 -69
-3 -6 -3 -11 -3 -11 2 0 10 -82 9 -98 -1 -7 -4 -12 -3 -12 3 0 7 -8 7 -25 1
-14 -5 -25 -6 -25 -2 0 5 -15 7 -32 6 -41 -3 -71 21 -58 46 5 10 7 20 4 23
-10 10 31 16 89 13 37 -2 57 0 58 8 0 6 2 7 5 1 2 -6 62 -10 152 -9z m3016
-290 c74 1 138 4 143 7 5 3 15 2 23 -3 9 -5 19 -5 27 2 7 6 13 6 13 1 0 -11
61 -10 79 2 8 4 16 2 21 -5 5 -8 10 -8 14 -2 7 12 24 11 45 -2 10 -6 12 -5 7
2 -4 7 -3 12 3 12 5 0 13 -5 16 -10 4 -7 12 -7 25 0 23 12 30 3 26 -34 -4 -35
-18 -44 -63 -39 -25 3 -33 0 -27 -8 5 -8 3 -9 -7 -3 -21 13 -38 14 -45 2 -4
-7 -9 -6 -14 2 -5 9 -13 9 -25 3 -10 -6 -32 -7 -51 -3 -19 4 -32 5 -30 1 2 -3
-18 -6 -45 -6 -27 0 -49 4 -49 9 0 4 -6 3 -14 -3 -9 -7 -22 -8 -37 -3 -15 6
-30 5 -42 -2 -14 -9 -20 -8 -27 4 -7 10 -12 12 -17 4 -6 -7 -64 -11 -180 -10
-94 1 -170 -1 -168 -4 7 -11 -110 -6 -117 4 -5 8 -8 8 -8 1 0 -6 -19 -10 -42
-10 -24 1 -49 -3 -55 -8 -7 -5 -13 -6 -13 -1 0 5 -20 9 -45 9 -25 0 -45 -4
-45 -10 0 -5 -5 -4 -12 3 -7 7 -17 8 -30 1 -13 -7 -18 -6 -18 2 0 8 -4 8 -13
1 -7 -6 -18 -7 -27 -2 -7 4 -23 4 -35 0 -14 -5 -27 -4 -34 3 -6 6 -11 7 -11 1
0 -12 -63 -12 -72 1 -5 6 -8 6 -8 -1 0 -12 -49 -12 -69 0 -6 4 -11 3 -11 -2 0
-10 -60 -10 -77 1 -6 4 -14 3 -17 -2 -7 -11 -55 -11 -62 1 -3 5 -11 5 -19 -2
-7 -6 -25 -9 -39 -6 -15 3 -26 0 -26 -7 0 -6 -7 -2 -16 9 -8 10 -13 13 -9 6 5
-9 -1 -12 -21 -9 -15 2 -47 0 -71 -3 -24 -4 -46 -4 -48 0 -2 4 -27 4 -54 0
-28 -3 -57 -2 -66 2 -10 6 -15 5 -15 -3 0 -8 -4 -8 -15 1 -8 7 -15 8 -15 3 0
-5 -9 -9 -20 -9 -11 0 -20 5 -20 10 0 6 -5 5 -12 -2 -9 -9 -15 -9 -27 1 -12 9
-13 9 -7 0 12 -21 -9 -15 -40 12 -16 14 -35 25 -42 25 -10 0 -10 5 -1 23 16
30 31 38 46 25 8 -6 13 -6 13 -1 0 11 29 11 48 -1 7 -4 12 -2 12 4 0 7 6 8 18
1 10 -5 23 -6 30 -2 14 8 54 7 70 -3 7 -4 12 -3 12 1 0 12 64 10 72 -2 5 -7 8
-7 8 0 0 6 18 10 40 11 23 1 37 -3 33 -8 -3 -6 2 -7 13 -1 23 11 164 10 182
-1 6 -4 12 -3 12 1 0 5 29 8 65 7 46 -1 63 1 58 10 -4 6 5 3 19 -6 16 -11 29
-14 33 -8 6 10 33 9 52 -3 6 -4 14 -3 17 1 3 5 41 8 86 8 47 -1 80 3 80 9 0 6
4 4 9 -4 6 -9 10 -10 16 -2 4 8 11 9 18 2 18 -14 29 -14 38 1 5 7 9 9 9 3 0
-6 32 -8 85 -5 47 3 97 2 110 -2 14 -3 25 -3 25 0 0 4 72 7 161 7 93 0 163 4
167 9 4 7 7 6 9 0 2 -6 57 -9 137 -8z m-3239 -17 c3 6 17 6 34 1 15 -4 34 -4
42 0 7 5 18 6 24 2 17 -11 35 -11 41 -1 4 6 11 6 19 -1 10 -8 15 -8 20 0 5 8
11 8 21 -1 11 -9 14 -9 14 0 0 9 5 9 20 1 12 -7 20 -7 20 -1 0 10 32 7 50 -4
6 -3 10 -1 10 6 0 10 3 10 11 2 6 -6 17 -9 23 -7 6 2 12 -8 13 -26 1 -16 -2
-30 -8 -30 -6 0 -8 -4 -5 -9 8 -13 -16 -29 -39 -25 -11 1 -23 -2 -27 -9 -5 -8
-11 -8 -15 -2 -8 11 -104 15 -98 5 2 -4 -2 -7 -10 -7 -8 0 -15 3 -15 7 0 3
-40 5 -90 4 -49 -1 -91 3 -91 7 -1 5 -2 17 -3 27 -1 9 -5 23 -9 30 -5 7 -4 12
2 12 6 0 8 7 4 16 -5 14 -3 15 15 5 12 -7 23 -7 27 -2z"/>
</g>
</svg>
