<?xml version="1.0" standalone="no"?>
<!DOCTYPE svg PUBLIC "-//W3C//DTD SVG 20010904//EN"
 "http://www.w3.org/TR/2001/REC-SVG-20010904/DTD/svg10.dtd">
<svg version="1.0" xmlns="http://www.w3.org/2000/svg"
 width="1280.000000pt" height="1280.000000pt" viewBox="0 0 1280.000000 1280.000000"
 preserveAspectRatio="xMidYMid meet">
<metadata>
Created by potrace 1.11, written by Peter Selinger 2001-2013
</metadata>
<g transform="translate(0.000000,1280.000000) scale(0.100000,-0.100000)"
fill="#000000" stroke="none">
<path d="M6237 12784 c-1 -1 -74 -4 -162 -8 -88 -4 -176 -8 -195 -11 -19 -2
-64 -6 -100 -10 -140 -13 -170 -17 -325 -41 -88 -13 -176 -27 -195 -30 -19 -3
-98 -19 -175 -35 -988 -208 -1907 -643 -2690 -1273 -82 -66 -165 -134 -184
-151 -19 -16 -59 -52 -90 -79 -86 -76 -450 -443 -511 -515 -30 -36 -62 -72
-70 -80 -36 -39 -154 -186 -242 -301 -530 -698 -918 -1516 -1122 -2370 -38
-160 -91 -425 -101 -510 -4 -30 -8 -57 -10 -60 -2 -3 -6 -39 -10 -80 -4 -41
-8 -77 -10 -80 -2 -3 -6 -41 -10 -85 -3 -44 -8 -87 -10 -95 -26 -105 -26
-1007 -1 -1170 3 -14 7 -54 11 -90 86 -895 407 -1848 888 -2640 427 -702 973
-1306 1627 -1800 760 -573 1642 -970 2580 -1160 181 -36 393 -70 535 -85 33
-4 71 -9 85 -12 14 -3 270 -8 570 -10 583 -5 685 -1 980 43 58 9 114 17 125
19 139 18 544 108 725 161 47 14 122 36 167 49 260 77 662 241 963 393 1415
715 2505 1913 3085 3392 196 502 333 1055 395 1600 6 52 12 111 15 130 27 238
27 993 0 1185 -2 17 -7 55 -10 85 -61 606 -223 1233 -470 1820 -264 627 -619
1189 -1104 1750 -31 36 -143 153 -249 260 -167 168 -250 246 -372 350 -14 12
-38 34 -55 49 -46 41 -289 229 -385 297 -825 588 -1751 967 -2745 1123 -163
25 -267 39 -370 46 -44 3 -91 8 -105 10 -67 11 -662 28 -673 19z m2930 -985
c668 -347 1237 -783 1735 -1329 84 -93 228 -264 278 -330 14 -18 30 -38 35
-44 46 -51 247 -339 342 -491 158 -253 347 -619 454 -875 176 -426 307 -874
379 -1301 26 -154 24 -142 44 -304 12 -97 26 -238 33 -340 10 -139 10 -632 1
-787 -43 -697 -217 -1415 -499 -2057 -59 -133 -202 -421 -248 -499 -17 -29
-31 -55 -31 -57 0 -8 -162 -269 -230 -371 -91 -136 -216 -308 -289 -398 -31
-38 -67 -83 -80 -100 -125 -158 -450 -497 -631 -657 -52 -46 -97 -86 -100 -89
-3 -3 -41 -35 -85 -70 -44 -36 -82 -68 -85 -71 -14 -15 -260 -196 -370 -271
-229 -156 -600 -375 -600 -353 0 2 9 66 20 142 12 76 23 154 25 173 2 19 7 53
11 75 3 22 7 51 9 65 5 30 23 168 30 225 2 22 12 96 21 165 8 69 17 139 19
155 2 17 6 46 9 65 3 19 13 91 21 160 9 69 23 170 31 225 9 55 18 118 20 140
11 95 86 535 119 700 56 277 81 373 120 457 51 111 101 268 121 378 19 102 24
318 12 431 -15 126 -68 351 -113 479 -62 174 -143 512 -184 770 -41 259 -50
382 -55 743 l-4 248 27 13 c64 34 164 143 299 329 50 68 72 228 38 266 -11 12
-18 41 -21 82 -2 41 -17 100 -40 164 -70 189 -84 230 -91 260 -4 17 -8 167 -9
335 -3 286 -9 470 -20 557 -11 89 -26 200 -30 226 -3 15 -9 55 -15 90 -9 54
-50 267 -80 422 -13 69 -41 265 -66 470 -2 22 -6 56 -9 75 -2 19 -7 69 -10
110 -10 122 -23 192 -56 296 -17 55 -37 119 -45 144 -19 62 -18 99 7 164 27
69 20 124 -23 192 -41 65 -45 112 -19 221 11 50 21 106 21 125 0 87 -54 193
-164 318 -31 35 -67 83 -81 106 -26 44 -39 94 -25 94 5 0 62 -28 127 -61z
m-6243 -480 c-14 -39 -65 -155 -114 -258 -199 -423 -221 -510 -216 -846 3
-139 11 -240 30 -375 15 -102 29 -200 31 -218 10 -67 26 -273 40 -519 12 -200
24 -389 30 -468 2 -33 7 -100 10 -150 4 -49 8 -108 10 -130 2 -22 9 -93 16
-159 14 -139 9 -199 -27 -339 -68 -265 -77 -448 -34 -672 11 -60 23 -124 26
-141 5 -27 0 -37 -36 -73 -23 -22 -46 -41 -53 -41 -23 0 -47 -34 -47 -66 0
-18 4 -35 9 -38 5 -3 18 -42 30 -85 12 -44 35 -109 51 -144 16 -36 34 -85 41
-110 6 -26 16 -50 23 -55 30 -24 265 -89 360 -99 97 -11 99 -12 113 -84 27
-132 52 -289 72 -454 26 -211 28 -224 41 -360 6 -60 12 -126 15 -145 2 -19 7
-66 10 -105 3 -38 8 -86 10 -105 2 -19 7 -62 10 -95 3 -33 7 -78 10 -100 3
-22 7 -62 10 -90 3 -27 8 -61 10 -75 2 -14 6 -47 10 -75 3 -27 10 -77 15 -110
5 -33 23 -154 39 -270 58 -395 64 -417 154 -605 91 -190 97 -213 92 -333 -3
-56 -8 -113 -11 -127 -3 -14 -8 -158 -9 -320 -6 -483 19 -641 205 -1280 134
-461 242 -852 237 -857 -8 -8 -348 146 -527 239 -452 234 -886 533 -1265 871
-114 102 -377 366 -471 472 -43 50 -82 92 -85 95 -14 12 -224 277 -286 361
-557 754 -938 1650 -1097 2579 -12 68 -55 396 -60 460 -28 324 -28 924 -1
1115 2 17 9 77 15 135 60 580 233 1218 481 1780 67 153 248 500 338 650 358
595 799 1110 1331 1556 114 95 424 332 437 334 2 0 -9 -32 -23 -71z m3070
-2153 c70 -29 138 -146 211 -361 71 -209 103 -284 256 -585 97 -191 143 -293
152 -335 9 -45 10 -105 3 -229 -10 -191 -4 -227 59 -329 19 -31 50 -82 69
-113 43 -69 53 -121 32 -162 -8 -16 -17 -61 -20 -98 -2 -38 -9 -82 -15 -97
-28 -73 3 -150 82 -202 40 -27 81 -42 163 -61 60 -13 150 -38 199 -54 80 -26
130 -38 294 -67 l43 -8 30 -80 c17 -44 73 -204 125 -355 111 -325 172 -481
292 -753 106 -242 203 -472 243 -582 80 -218 138 -421 138 -484 0 -66 -28
-154 -99 -319 -74 -171 -96 -238 -116 -357 -22 -126 -27 -159 -50 -370 -11
-105 -19 -286 -19 -440 0 -158 12 -573 18 -650 2 -22 7 -132 11 -245 4 -113 8
-227 10 -255 2 -27 6 -147 10 -265 8 -293 19 -459 35 -581 5 -37 12 -89 16
-116 l6 -49 -174 -47 c-528 -143 -1052 -212 -1603 -211 -164 0 -451 11 -491
18 -10 2 -59 7 -109 11 -49 4 -97 8 -105 10 -8 1 -41 6 -74 10 -63 7 -65 8
-174 25 -61 10 -73 15 -77 33 -3 12 -12 105 -20 207 -9 102 -17 201 -20 220
-2 19 -6 80 -10 135 -3 55 -8 116 -10 135 -20 183 -27 880 -11 1115 20 298 12
462 -29 608 -25 88 -48 138 -183 405 -40 79 -91 198 -114 265 -34 103 -41 139
-45 227 -5 100 -3 111 30 215 82 253 117 452 118 663 1 123 -8 170 -58 302
-54 145 -73 252 -77 430 -4 195 18 459 59 690 3 14 8 48 11 75 9 66 20 85 48
85 42 0 159 41 236 82 134 71 225 168 277 293 28 69 34 99 34 172 0 73 -30
138 -75 163 -29 15 -32 38 -16 117 19 92 79 546 95 723 3 36 8 81 10 100 2 19
7 64 10 100 3 36 8 88 11 115 2 28 7 70 9 95 5 49 25 233 30 265 1 11 6 47 10
80 4 33 9 69 11 80 3 11 7 36 10 55 53 324 151 547 242 550 7 0 27 -6 46 -14z"/>
</g>
</svg>
